#!OML:ASF C:\Vicon Data\Big\jianyuan-13\jianyuan\Session 1\Capture.male.ASF
:FULLY-SPECIFIED
:DEGREES
84
root -8.806949 17.426658 -15.994959 -1.472650 8.772931 4.097783
lowerback -7.695462 2.863820 -2.782397 
upperback 3.444843 4.169105 -1.149652 
thorax 7.837305 1.901216 0.937636 
lowerneck -0.786136 -2.652308 3.557516 
upperneck 13.702410 -4.126181 -2.885972 
head 4.540046 -2.276560 -1.799058 
rclavicle 0.000000 0.000000 
rhumerus -25.142562 -2.681814 -88.380808 
rradius 50.104983 
rwrist 17.364180 
rhand -18.511046 -17.830523 
rfingers 0.000000 
rthumb 7.777127 -47.667476 
lclavicle 0.000000 0.000000 
lhumerus -43.712726 32.843175 64.274306 
lradius 26.649690 
lwrist -55.217022 
lhand -19.292271 0.870833 
lfingers 0.000000 
lthumb 7.023070 30.734299 
rfemur -0.180238 6.585537 23.261454 
rtibia 24.434178 
rfoot -20.741157 -3.392507 
rtoes -23.544002 
lfemur -67.271356 3.179957 -21.667469 
ltibia 72.987842 
lfoot -13.007609 -7.350517 
ltoes -35.898599 
85
root -8.796535 17.405765 -15.881739 -1.517121 8.606432 3.927057
lowerback -7.856221 2.850175 -2.641000 
upperback 3.353684 4.141090 -1.095431 
thorax 7.838965 1.896393 0.918962 
lowerneck -0.815260 -2.573225 3.472291 
upperneck 13.717169 -4.021471 -2.840224 
head 4.557441 -2.227347 -1.765919 
rclavicle 0.000000 0.000000 
rhumerus -25.551096 -2.625087 -88.443524 
rradius 50.132414 
rwrist 17.388428 
rhand -18.395383 -17.986226 
rfingers 0.000000 
rthumb 7.888709 -47.819034 
lclavicle 0.000000 0.000000 
lhumerus -43.950072 32.913856 64.075912 
lradius 26.757383 
lwrist -54.857880 
lhand -19.188740 0.810238 
lfingers 0.000000 
lthumb 7.122950 30.670326 
rfemur 0.176581 6.572321 23.507031 
rtibia 24.574868 
rfoot -21.027656 -3.217775 
rtoes -23.987149 
lfemur -66.351050 3.119083 -21.467362 
ltibia 70.758484 
lfoot -13.271121 -6.893485 
ltoes -37.694341 
86
root -8.787012 17.386718 -15.769263 -1.504469 8.426575 3.771972
lowerback -8.075672 2.836785 -2.535511 
upperback 3.270177 4.119907 -1.062461 
thorax 7.881837 1.892125 0.902254 
lowerneck -0.908726 -2.520679 3.503100 
upperneck 13.733979 -3.945396 -2.895012 
head 4.583654 -2.190095 -1.790545 
rclavicle 0.000000 0.000000 
rhumerus -25.863910 -2.631585 -88.530974 
rradius 50.065930 
rwrist 17.322738 
rhand -18.451452 -18.049727 
rfingers 0.000000 
rthumb 7.834614 -47.884508 
lclavicle 0.000000 0.000000 
lhumerus -44.120665 32.897456 63.907231 
lradius 26.820012 
lwrist -54.741462 
lhand -19.162610 0.757954 
lfingers 0.000000 
lthumb 7.148156 30.617209 
rfemur 0.485539 6.530528 23.727055 
rtibia 24.677609 
rfoot -21.181951 -3.042949 
rtoes -24.149253 
lfemur -65.493833 3.008184 -21.201278 
ltibia 68.639980 
lfoot -13.356435 -6.400721 
ltoes -38.572327 
87
root -8.774399 17.366054 -15.654645 -1.502488 8.158556 3.638054
lowerback -8.339606 2.870228 -2.462132 
upperback 3.212522 4.165798 -1.024898 
thorax 7.973890 1.917208 0.921151 
lowerneck -0.911819 -2.472980 3.494929 
upperneck 13.675339 -3.880093 -2.850031 
head 4.566037 -2.154466 -1.769644 
rclavicle 0.000000 0.000000 
rhumerus -26.151555 -2.820981 -88.551635 
rradius 49.989421 
rwrist 17.333684 
rhand -18.489839 -17.986734 
rfingers 0.000000 
rthumb 7.797580 -47.822935 
lclavicle 0.000000 0.000000 
lhumerus -44.334607 33.028409 63.646094 
lradius 26.786869 
lwrist -54.989741 
lhand -19.292955 0.722571 
lfingers 0.000000 
lthumb 7.022348 30.586096 
rfemur 0.792621 6.551249 23.916204 
rtibia 24.828976 
rfoot -21.408319 -2.841522 
rtoes -24.119403 
lfemur -64.571648 3.019512 -20.973350 
ltibia 66.595164 
lfoot -13.519009 -6.179794 
ltoes -38.432619 
88
root -8.763225 17.344558 -15.541209 -1.392498 7.934543 3.546185
lowerback -8.655240 2.929937 -2.463284 
upperback 3.099234 4.256793 -1.001211 
thorax 8.030543 1.961886 0.975217 
lowerneck -0.862697 -2.479797 3.522714 
upperneck 13.651281 -3.890749 -2.840717 
head 4.546771 -2.158340 -1.769748 
rclavicle 0.000000 0.000000 
rhumerus -26.427775 -3.217360 -88.482722 
rradius 49.814647 
rwrist 17.439495 
rhand -18.445829 -17.903820 
rfingers 0.000000 
rthumb 7.840049 -47.738472 
lclavicle 0.000000 0.000000 
lhumerus -44.449135 32.827892 63.623323 
lradius 26.789295 
lwrist -54.791009 
lhand -19.361968 0.809050 
lfingers 0.000000 
lthumb 6.955730 30.674778 
rfemur 0.960544 6.702642 24.093412 
rtibia 25.037248 
rfoot -21.629646 -2.834510 
rtoes -24.013371 
lfemur -63.768176 2.914750 -20.743700 
ltibia 64.573679 
lfoot -13.573509 -5.860123 
ltoes -38.666666 
89
root -8.752450 17.326561 -15.425510 -1.289913 7.673671 3.453382
lowerback -8.990640 2.937574 -2.443525 
upperback 3.019092 4.276947 -0.994366 
thorax 8.139083 1.971585 0.991942 
lowerneck -0.975018 -2.428146 3.699730 
upperneck 13.717877 -3.823023 -2.942260 
head 4.592191 -2.121547 -1.838790 
rclavicle 0.000000 0.000000 
rhumerus -26.680353 -3.270935 -88.556920 
rradius 49.758808 
rwrist 17.309599 
rhand -18.461959 -17.933856 
rfingers 0.000000 
rthumb 7.824511 -47.769134 
lclavicle 0.000000 0.000000 
lhumerus -44.676418 32.865759 63.400430 
lradius 26.825638 
lwrist -54.783342 
lhand -19.264775 0.794720 
lfingers 0.000000 
lthumb 7.049597 30.657337 
rfemur 1.139975 6.807172 24.252026 
rtibia 25.239418 
rfoot -21.883003 -2.734113 
rtoes -24.129312 
lfemur -62.944065 2.909644 -20.540147 
ltibia 62.686646 
lfoot -13.739579 -5.487814 
ltoes -39.345864 
90
root -8.739793 17.304497 -15.313207 -1.221145 7.328390 3.371388
lowerback -9.243341 2.985302 -2.419069 
upperback 2.946477 4.345975 -0.978171 
thorax 8.205836 2.005740 1.019018 
lowerneck -1.006254 -2.388797 3.736674 
upperneck 13.719028 -3.773016 -2.933457 
head 4.600523 -2.094526 -1.841490 
rclavicle 0.000000 0.000000 
rhumerus -26.875526 -3.379112 -88.576663 
rradius 49.631383 
rwrist 17.403430 
rhand -18.508673 -17.938090 
rfingers 0.000000 
rthumb 7.779415 -47.774967 
lclavicle 0.000000 0.000000 
lhumerus -44.839329 32.792336 63.303810 
lradius 26.834135 
lwrist -54.680215 
lhand -19.320090 0.853888 
lfingers 0.000000 
lthumb 6.996141 30.718286 
rfemur 1.351246 7.027172 24.404022 
rtibia 25.458097 
rfoot -22.092688 -2.622874 
rtoes -24.173784 
lfemur -62.092815 2.898085 -20.298049 
ltibia 60.897862 
lfoot -13.903584 -4.931462 
ltoes -39.354462 
91
root -8.723497 17.284088 -15.201480 -1.124422 7.038505 3.240451
lowerback -9.533473 2.977044 -2.325652 
upperback 2.880013 4.330908 -0.925266 
thorax 8.305306 2.001240 1.035992 
lowerneck -0.990212 -2.300814 3.643042 
upperneck 13.678542 -3.652767 -2.878826 
head 4.589223 -2.036905 -1.800047 
rclavicle 0.000000 0.000000 
rhumerus -27.048245 -3.417654 -88.593195 
rradius 49.548268 
rwrist 17.418517 
rhand -18.506433 -17.997220 
rfingers 0.000000 
rthumb 7.781574 -47.834066 
lclavicle 0.000000 0.000000 
lhumerus -45.109327 32.897339 63.124604 
lradius 26.878750 
lwrist -54.535168 
lhand -19.226895 0.974161 
lfingers 0.000000 
lthumb 7.086164 30.835553 
rfemur 1.530701 7.048739 24.552004 
rtibia 25.642438 
rfoot -22.274065 -2.506116 
rtoes -24.209766 
lfemur -61.275269 2.828755 -19.982711 
ltibia 59.150729 
lfoot -14.008213 -4.572405 
ltoes -38.675769 
92
root -8.710654 17.262662 -15.084181 -0.993837 6.652611 3.072055
lowerback -9.866365 3.020961 -2.259880 
upperback 2.797770 4.387219 -0.837009 
thorax 8.405499 2.029232 1.119393 
lowerneck -1.052365 -2.239772 3.563640 
upperneck 13.758437 -3.571782 -2.892792 
head 4.635109 -2.003626 -1.791736 
rclavicle 0.000000 0.000000 
rhumerus -27.223813 -3.451874 -88.525292 
rradius 49.445888 
rwrist 17.488973 
rhand -18.613890 -18.100609 
rfingers 0.000000 
rthumb 7.677877 -47.941215 
lclavicle 0.000000 0.000000 
lhumerus -45.449423 32.936769 62.973612 
lradius 26.975438 
lwrist -54.476074 
lhand -19.141785 0.856755 
lfingers 0.000000 
lthumb 7.168318 30.715391 
rfemur 1.727234 7.237790 24.775964 
rtibia 25.748113 
rfoot -22.451345 -2.425816 
rtoes -24.244289 
lfemur -60.458960 2.853259 -19.668174 
ltibia 57.442640 
lfoot -14.175164 -3.897288 
ltoes -39.234883 
93
root -8.679147 17.242019 -14.958505 -1.437152 7.385834 3.123469
lowerback -9.597928 2.741115 -2.287995 
upperback 2.880766 4.011272 -0.897324 
thorax 8.352873 1.846367 0.996846 
lowerneck -0.954954 -2.242686 3.531841 
upperneck 13.741450 -3.589362 -2.781344 
head 4.610917 -2.010526 -1.745597 
rclavicle 0.000000 0.000000 
rhumerus -27.434875 -3.726343 -88.554093 
rradius 49.267152 
rwrist 17.658275 
rhand -18.652926 -17.976774 
rfingers 0.000000 
rthumb 7.640141 -47.818747 
lclavicle 0.000000 0.000000 
lhumerus -45.724294 32.819343 62.739870 
lradius 26.949793 
lwrist -54.589651 
lhand -19.127543 0.813643 
lfingers 0.000000 
lthumb 7.182068 30.671782 
rfemur 2.834004 6.656525 24.864988 
rtibia 25.622694 
rfoot -22.784923 -2.739422 
rtoes -24.333061 
lfemur -58.998604 2.070597 -19.932604 
ltibia 55.696210 
lfoot -14.315441 -3.157505 
ltoes -41.646180 
94
root -8.658545 17.228376 -14.841536 -1.327624 7.223443 3.026711
lowerback -9.847016 2.737662 -2.177957 
upperback 2.785917 4.002074 -0.930712 
thorax 8.405041 1.848329 0.909819 
lowerneck -0.943624 -2.197921 3.700530 
upperneck 13.800656 -3.542153 -2.806776 
head 4.630070 -1.982924 -1.784290 
rclavicle 0.000000 0.000000 
rhumerus -27.635427 -3.807275 -88.628227 
rradius 49.147996 
rwrist 17.659027 
rhand -18.816049 -18.075251 
rfingers 0.000000 
rthumb 7.482745 -47.922885 
lclavicle 0.000000 0.000000 
lhumerus -45.953062 32.828727 62.396461 
lradius 26.862659 
lwrist -54.902212 
lhand -19.094160 0.779320 
lfingers 0.000000 
lthumb 7.214228 30.636313 
rfemur 3.153438 6.561986 24.973524 
rtibia 25.541325 
rfoot -22.817921 -2.676003 
rtoes -24.323774 
lfemur -58.067362 1.619568 -19.456190 
ltibia 53.938629 
lfoot -14.395420 -2.732018 
ltoes -38.816582 
95
root -8.637154 17.208316 -14.723096 -1.238751 6.875776 2.999518
lowerback -10.069083 2.737497 -2.169871 
upperback 2.709577 4.004874 -0.894102 
thorax 8.448992 1.849149 0.954558 
lowerneck -0.922661 -2.105966 3.621140 
upperneck 13.861614 -3.419346 -2.827108 
head 4.653861 -1.930792 -1.773919 
rclavicle 0.000000 0.000000 
rhumerus -27.792187 -3.772774 -88.615574 
rradius 49.014321 
rwrist 17.802526 
rhand -18.879133 -18.132416 
rfingers 0.000000 
rthumb 7.421864 -47.982194 
lclavicle 0.000000 0.000000 
lhumerus -46.338219 32.813977 62.256791 
lradius 26.899550 
lwrist -54.787586 
lhand -19.099096 0.869895 
lfingers 0.000000 
lthumb 7.209488 30.727120 
rfemur 3.406100 6.611637 25.000066 
rtibia 25.695100 
rfoot -22.985705 -2.571943 
rtoes -24.698429 
lfemur -57.183351 1.747596 -19.474970 
ltibia 52.399769 
lfoot -14.608166 -1.847450 
ltoes -41.655418 
